<?xml version="1.0" standalone="no"?><!DOCTYPE svg PUBLIC "-//W3C//DTD SVG 1.1//EN" "http://www.w3.org/Graphics/SVG/1.1/DTD/svg11.dtd"><svg class="icon" width="200px" height="200.00px" viewBox="0 0 1024 1024" version="1.1" xmlns="http://www.w3.org/2000/svg"><path fill="#ffffff" d="M942.973592 203.240891c3.541663-6.385431 5.4225-13.007245 5.4225-19.799952 0-52.163033-109.947088-94.450139-245.571998-94.450139-135.622864 0-245.569952 42.287105-245.569952 94.450139 0 6.791683 1.879813 13.413498 5.4225 19.799952-3.200902 1.512447-5.4225 4.76042-5.4225 8.535397l0 156.522869c-38.169321-9.399067-83.543741-14.848173-132.22958-14.848173-135.623887 0-245.567905 42.287105-245.567905 94.450139 0 6.791683 1.879813 13.413498 5.421476 19.798928-3.200902 1.511423-5.421476 4.76042-5.421476 8.53642l0 377.799532c0 3.225461 1.617847 6.069229 4.084015 7.773034 21.045315 43.940768 121.150244 77.231989 241.48389 77.231989 120.335692 0 220.441645-33.291221 241.485937-77.233012 2.466168-1.703805 4.084015-4.547573 4.084015-7.772011l0-62.076824c38.168298 9.400091 83.541695 14.852266 132.22958 14.852266 120.335692 0 220.444714-33.292244 241.487983-77.234035 2.465145-1.703805 4.082992-4.546549 4.082992-7.770987L948.395068 211.775264C948.396091 208.001311 946.175517 204.752314 942.973592 203.240891zM325.024561 391.230426c114.76072 0 207.789487 25.372877 207.789487 56.669674 0 31.298843-93.02979 56.669674-207.789487 56.669674-114.758674 0-207.78744-25.370831-207.78744-56.669674C117.237121 416.603303 210.265888 391.230426 325.024561 391.230426zM117.237121 498.248811c43.493583 26.497491 120.290667 44.101427 207.78744 44.101427 87.49882 0 164.295903-17.603937 207.789487-44.101427l0 81.880869c0 31.298843-93.02979 56.669674-207.789487 56.669674-114.758674 0-207.78744-25.370831-207.78744-56.669674L117.237121 498.248811zM117.237121 630.478392c43.493583 26.497491 120.290667 44.101427 207.78744 44.101427 87.49882 0 164.295903-17.603937 207.789487-44.101427l0 81.880869c0 31.298843-93.02979 56.669674-207.789487 56.669674-114.758674 0-207.78744-25.370831-207.78744-56.669674L117.237121 630.478392zM325.024561 901.259538c-114.758674 0-207.78744-25.370831-207.78744-56.669674l0-81.880869c43.493583 26.497491 120.290667 44.101427 207.78744 44.101427 87.49882 0 164.295903-17.603937 207.789487-44.101427l0 81.880869C532.814048 875.888707 439.785282 901.259538 325.024561 901.259538zM910.61358 712.360284c0 31.298843-93.030813 56.669674-207.789487 56.669674-50.233078 0-96.303346-4.861728-132.22958-12.95301l0-96.356558c38.169321 9.402137 83.537602 14.860453 132.22958 14.860453 87.496773 0 164.29488-17.602913 207.789487-44.100404L910.61358 712.360284zM910.61358 580.130703c0 31.298843-93.030813 56.669674-207.789487 56.669674-50.233078 0-96.303346-4.861728-132.22958-12.95301l0-96.356558c38.169321 9.402137 83.537602 14.860453 132.22958 14.860453 87.496773 0 164.29488-17.602913 207.789487-44.100404L910.61358 580.130703zM910.61358 447.9001c0 31.298843-93.030813 56.669674-207.789487 56.669674-50.233078 0-96.303346-4.861728-132.22958-12.95301l0-15.381315c0-3.774977-2.219551-7.023974-5.421476-8.535397 3.541663-6.385431 5.421476-13.007245 5.421476-19.798928 0-26.784016-28.993335-50.962695-75.559906-68.15117l0-13.730723c43.494607 26.498514 120.292714 44.101427 207.789487 44.101427s164.29488-17.602913 207.789487-44.100404L910.61358 447.9001zM910.61358 315.670519c0 31.298843-93.030813 56.669674-207.789487 56.669674s-207.789487-25.370831-207.789487-56.669674l0-81.881892c43.494607 26.498514 120.292714 44.101427 207.789487 44.101427s164.29488-17.602913 207.789487-44.100404L910.61358 315.670519zM702.824093 240.110613c-114.758674 0-207.789487-25.372877-207.789487-56.669674s93.030813-56.669674 207.789487-56.669674S910.61358 152.144142 910.61358 183.440939 817.582767 240.110613 702.824093 240.110613z" /></svg>