<?xml version="1.0" standalone="no"?><!DOCTYPE svg PUBLIC "-//W3C//DTD SVG 1.1//EN" "http://www.w3.org/Graphics/SVG/1.1/DTD/svg11.dtd"><svg t="1596901951651" class="icon" viewBox="0 0 1024 1024" version="1.1" xmlns="http://www.w3.org/2000/svg" p-id="7845" xmlns:xlink="http://www.w3.org/1999/xlink" width="200" height="200"><defs><style type="text/css"></style></defs><path d="M961.3 68.3c-0.9-3.2-2.2-4.8-5.7-5.7-49-13.1-98.8-17.7-149.4-15.1-29.7 1.6-59 5.4-88 11.7-79.2 17.2-152 49.5-219.5 93.9-65 42.8-122 94.7-172.8 153.5-2 2.3-4.1 3.4-7.2 3.3-13.7-0.3-27.3 0.4-40.9 1.7-40.4 3.9-78.5 15.5-114.5 34.2-44 23-80.8 55-115.3 90.1-2.6 2.6-0.9 3.5 1.1 4.8 10.5 7 21 14.1 31.5 21.1 52.7 35.3 105.4 70.7 158.1 106 2.3 1.6 4.6 2.5 2.6 6.5-11.9 23.8-14.1 49-8.1 74.5 16.2 68.6 59.1 113.4 125.3 135.7 29 9.8 58.6 9.9 87.2-3.2 3.6-1.6 5-1 7 2 18.5 27.9 37.1 55.7 55.7 83.6 23.8 35.7 47.7 71.5 71.5 107.2 1.7 2.6 2.7 4.7 6 1.1 6.2-6.8 12.9-13 19.3-19.6 28.4-29.2 53.3-60.9 72.5-96.9 25.8-48.6 36.6-100.7 35.4-155.4-0.1-3.4 0.7-5.9 3.4-8.2 30-26 58.3-53.8 84.6-83.5 50.4-56.8 92.5-119.1 123.6-188.5 33.3-74.4 51.8-152.2 52.5-234-0.2-4.7-0.5-9.3-0.6-14-0.6-36.1-6-71.7-15.3-106.8zM885.9 416c-27.6 59.5-63.9 113.3-106.8 162.8-30.7 35.5-64.3 68.1-100.2 98.2-3.5 2.9-5 5.9-4.8 10.6 1.2 29.7 0.6 59.2-6.1 88.4-9.4 40.8-28.1 77-53.2 110.2-7.1 9.3-14.5 18.3-22.2 27-4.1 4.5-4.1 4.5-7.4-0.4-36-53.9-71.9-107.8-107.9-161.7-4-6-8.2-11.8-11.8-17.9-2-3.4-3.6-4.1-7.3-2-10.4 5.9-20.8 12.1-31.8 16.6-19.9 8.2-40.4 6.1-60-1-47.9-17.4-79.9-50.5-94.1-99.7-6.4-22.4-4.7-44.1 8.1-64.3 4.1-6.5 7.2-13.5 11.3-20 2.1-3.4 1.1-4.9-1.9-6.9-56.8-37.9-113.5-76-170.2-114-3.3-2.2-6.6-4.6-9.9-6.7-2.2-1.4-2.8-2.4-0.6-4.4 40.9-36.2 86.3-64 140.3-75.8 28-6.1 56.3-7.9 84.9-6.1 4.5 0.3 7.3-1.3 10.1-4.6 52.3-62.2 111.1-117.2 179.5-161.5 62.9-40.7 130.4-70.4 203.9-86 29.7-6.3 59.7-10.1 90-11.1 35.8-1.2 71.1 1.7 106.2 9 3.6 0.8 4.8 2.3 5.5 5.7 6.1 29.3 9.2 58.8 9.1 88.8-0.4 79.4-19.2 154.8-52.7 226.8zM276.6 753.2c-14.9-8.4-30.3-7.5-45.7-1.5-20.6 8.1-33.6 23.7-42.9 43.2-13.2 27.8-21.3 57.3-28.3 87.1-1.1 4.6 1.4 4.1 4.4 3.5 16.6-3.4 33.1-7.4 49.2-12.7 19.3-6.4 38.3-13.5 54.8-25.8 17.6-13.1 27.9-30.4 29.8-52.5 1.2-17.1-6.9-33.2-21.3-41.3z m-17.2 39.1c-0.3 9.3-5.3 16.4-12 22.1-9.4 8.1-20.9 12.5-33.4 17.4 5.6-13.7 9.7-26.9 19.7-37 5.3-5.3 11.6-8.9 19.4-9.1 5-0.1 6.5 1.4 6.3 6.6z" p-id="7846"></path><path d="M634.3 287.1c-42.1 0.1-76.7 34.7-76.8 76.6-0.1 42.4 34.4 77 76.7 77.1 42.4 0 77-34.4 77-76.8 0.1-42.2-34.7-77-76.9-76.9z m-0.2 115.4c-21.1 0.1-38.1-17.7-37.8-39.5 0.3-21 17.4-37.4 38.8-37.3 21 0.2 37.8 17.3 37.6 38.5-0.2 21.4-17.2 38.3-38.6 38.3z" p-id="7847"></path></svg>