<?xml version="1.0" standalone="no"?><!DOCTYPE svg PUBLIC "-//W3C//DTD SVG 1.1//EN" "http://www.w3.org/Graphics/SVG/1.1/DTD/svg11.dtd"><svg class="icon" width="200px" height="140.47px" viewBox="0 0 1458 1024" version="1.1" xmlns="http://www.w3.org/2000/svg"><path d="M859.025871 326.00727H532.580714c-12.589267 0-22.441736-9.85247-22.441736-22.441737s9.85247-22.441736 22.441736-22.441736h326.445157c12.589267 0 22.441736 9.85247 22.441736 22.441736s-9.85247 22.441736-22.441736 22.441737zM859.025871 476.640582H532.580714c-12.589267 0-22.441736-9.85247-22.441736-22.441737s9.85247-22.441736 22.441736-22.441736h326.445157c12.589267 0 22.441736 9.85247 22.441736 22.441736s-9.85247 22.441736-22.441736 22.441737z" fill="#999899" /><path d="M987.98375 675.988882c0 32.184734 26.054308 58.239042 58.239042 58.239042 32.184734 0 58.348514-26.054308 58.348514-58.239042 0-32.184734-26.054308-58.348514-58.348514-58.348514-32.075262 0.109472-58.239042 26.16378-58.239042 58.348514z m0 0" fill="#323333" /><path d="M1024.656831 690.329699h44.883473v122.827453h-44.883473z" fill="#323333" /><path d="M1134.128715 854.975412H960.06842c-12.589267 0-22.441736-9.85247-22.441736-22.441737s9.85247-22.441736 22.441736-22.441736h174.060295c12.589267 0 22.441736 9.85247 22.441736 22.441736s-9.961941 22.441736-22.441736 22.441737zM1096.470387 948.245456h-98.19628c-12.589267 0-22.441736-9.85247-22.441736-22.441736s9.85247-22.441736 22.441736-22.441736h98.19628c12.589267 0 22.441736 9.85247 22.441736 22.441736-0.109472 12.479795-9.961941 22.441736-22.441736 22.441736z" fill="#323333" /><path d="M612.276245 948.245456H367.935001c-12.589267 0-22.441736-9.85247-22.441736-22.441736V99.40047c0-12.589267 9.85247-22.441736 22.441736-22.441736h642.599957c12.589267 0 22.441736 9.85247 22.441736 22.441736v242.589695c0 12.589267-9.85247 22.441736-22.441736 22.441736s-22.441736-9.85247-22.441736-22.441736V121.842207h-597.716485v781.519777h222.00898c12.589267 0 22.441736 9.85247 22.441736 22.441736-0.109472 12.479795-9.961941 22.441736-22.551208 22.441736z" fill="#999899" /><path d="M804.289929 623.113962H529.077614c-10.618773 0-18.938636-8.319863-18.938636-18.938636 0-10.618773 8.319863-18.938636 18.938636-18.938636h275.212315c10.618773 0 18.938636 8.319863 18.938636 18.938636 0 10.618773-8.319863 18.938636-18.938636 18.938636z" fill="#999899" /></svg>