<?xml version="1.0" standalone="no"?><!DOCTYPE svg PUBLIC "-//W3C//DTD SVG 1.1//EN" "http://www.w3.org/Graphics/SVG/1.1/DTD/svg11.dtd"><svg class="icon" width="200px" height="200.00px" viewBox="0 0 1024 1024" version="1.1" xmlns="http://www.w3.org/2000/svg"><path fill="#ffffff" d="M893.456828 709.055005M491.889987 337.939709M568.154951 338.993714M729.897705 611.110275c-91.560322 0-166.053943 74.492598-166.053943 166.053943s74.492598 166.053943 166.053943 166.053943 166.053943-74.492598 166.053943-166.053943S821.459051 611.110275 729.897705 611.110275zM729.897705 901.703653c-68.675102 0-124.540458-55.864332-124.540458-124.540458S661.222603 652.623761 729.897705 652.623761s124.540458 55.864332 124.540458 124.540458S798.573831 901.703653 729.897705 901.703653zM491.196185 213.408461c0-91.560322-74.492598-166.053943-166.053943-166.053943s-166.053943 74.492598-166.053943 166.053943S233.581919 379.462404 325.142242 379.462404 491.196185 304.968783 491.196185 213.408461zM200.602807 213.408461c0-68.675102 55.864332-124.540458 124.540458-124.540458S449.682699 144.733359 449.682699 213.408461s-55.864332 124.540458-124.540458 124.540458S200.602807 282.084587 200.602807 213.408461zM787.627525 66.095347c-9.688663-6.081509-22.5199-3.151783-28.611641 6.557346l-524.106736 835.456856c-6.090718 9.709129-3.151783 22.5199 6.557346 28.611641 3.426029 2.148943 7.236821 3.172249 11.006681 3.172249 6.912433 0 13.662161-3.445472 17.60496-9.729595L794.184871 94.706989C800.276612 84.996836 797.336654 72.186066 787.627525 66.095347z" /></svg>