<?xml version="1.0" standalone="no"?><!DOCTYPE svg PUBLIC "-//W3C//DTD SVG 1.1//EN" "http://www.w3.org/Graphics/SVG/1.1/DTD/svg11.dtd"><svg class="icon" width="200px" height="200.00px" viewBox="0 0 1024 1024" version="1.1" xmlns="http://www.w3.org/2000/svg"><path fill="#ffffff" d="M512 42.666667C251.733333 42.666667 42.666667 251.733333 42.666667 512s209.066667 469.333333 469.333333 469.333333 469.333333-209.066667 469.333333-469.333333S772.266667 42.666667 512 42.666667zM512 938.666667C277.333333 938.666667 85.333333 746.666667 85.333333 512S277.333333 85.333333 512 85.333333s426.666667 192 426.666667 426.666667S746.666667 938.666667 512 938.666667zM597.333333 509.866667c-10.666667-8.533333-21.333333-14.933333-36.266667-19.2-12.8-4.266667-23.466667-10.666667-36.266667-12.8l0-102.4c17.066667 0 25.6 4.266667 32 12.8 8.533333 8.533333 12.8 21.333333 12.8 38.4l53.333333 0c0-14.933333-2.133333-29.866667-8.533333-40.533333-6.4-12.8-12.8-21.333333-21.333333-29.866667-8.533333-8.533333-19.2-12.8-32-17.066667-12.8-4.266667-21.333333-6.4-36.266667-6.4L524.8 298.666667l-27.733333 0 0 32c-14.933333 0-23.466667 2.133333-36.266667 6.4C448 341.333333 435.2 345.6 426.666667 354.133333c-10.666667 8.533333-17.066667 17.066667-23.466667 29.866667-6.4 12.8-8.533333 25.6-8.533333 40.533333 0 17.066667 2.133333 32 8.533333 44.8 6.4 12.8 14.933333 21.333333 25.6 29.866667 10.666667 8.533333 21.333333 14.933333 34.133333 19.2 12.8 4.266667 21.333333 8.533333 34.133333 12.8l0 117.333333c-21.333333 0-34.133333-6.4-42.666667-19.2-8.533333-12.8-14.933333-29.866667-12.8-51.2l-53.333333 0c0 17.066667 2.133333 34.133333 8.533333 46.933333 6.4 12.8 12.8 25.6 23.466667 34.133333 10.666667 8.533333 21.333333 17.066667 36.266667 21.333333s25.6 8.533333 42.666667 8.533333L499.2 725.333333l27.733333 0 0-32c14.933333 0 25.6-4.266667 40.533333-8.533333 12.8-4.266667 25.6-10.666667 34.133333-21.333333 10.666667-8.533333 17.066667-19.2 23.466667-34.133333 6.4-12.8 8.533333-29.866667 8.533333-46.933333 0-17.066667-2.133333-32-8.533333-44.8C616.533333 526.933333 608 516.266667 597.333333 509.866667zM497.066667 469.333333c-6.4-2.133333-8.533333-4.266667-14.933333-6.4-6.4-2.133333-12.8-6.4-17.066667-8.533333-4.266667-4.266667-8.533333-8.533333-12.8-14.933333C448 435.2 448 428.8 448 420.266667c0-17.066667 4.266667-29.866667 12.8-36.266667 8.533333-6.4 19.2-10.666667 34.133333-10.666667L494.933333 469.333333zM561.066667 633.6c-10.666667 8.533333-21.333333 14.933333-38.4 14.933333l0-113.066667c6.4 2.133333 10.666667 4.266667 17.066667 6.4 6.4 2.133333 12.8 6.4 19.2 10.666667 6.4 4.266667 10.666667 8.533333 12.8 14.933333 4.266667 6.4 4.266667 12.8 4.266667 23.466667C578.133333 610.133333 571.733333 622.933333 561.066667 633.6z" /></svg>