<?xml version="1.0" standalone="no"?><!DOCTYPE svg PUBLIC "-//W3C//DTD SVG 1.1//EN" "http://www.w3.org/Graphics/SVG/1.1/DTD/svg11.dtd"><svg class="icon" width="200px" height="200.00px" viewBox="0 0 1024 1024" version="1.1" xmlns="http://www.w3.org/2000/svg"><path fill="#666" d="M1006.933333 682.666667h-443.733333c-10.24 0-17.066667-6.826667-17.066667-17.066667s6.826667-17.066667 17.066667-17.066667H989.866667V68.266667H68.266667v426.666666c0 10.24-6.826667 17.066667-17.066667 17.066667s-17.066667-6.826667-17.066667-17.066667v-443.733333c0-10.24 6.826667-17.066667 17.066667-17.066667h955.733333c10.24 0 17.066667 6.826667 17.066667 17.066667v614.4c0 10.24-6.826667 17.066667-17.066667 17.066667z"  /><path fill="#666" d="M529.066667 512c-54.613333 0-116.053333-30.72-119.466667-78.506667 0-10.24 6.826667-17.066667 17.066667-17.066666s17.066667 6.826667 17.066666 17.066666c3.413333 23.893333 44.373333 47.786667 85.333334 47.786667 37.546667 0 68.266667-20.48 68.266666-51.2 0-34.133333-37.546667-44.373333-68.266666-51.2l-10.24-3.413333c-27.306667-3.413333-109.226667-20.48-109.226667-85.333334C409.6 238.933333 471.04 204.8 529.066667 204.8c54.613333 0 98.986667 37.546667 102.4 85.333333 0 6.826667-6.826667 17.066667-17.066667 17.066667s-17.066667-6.826667-17.066667-17.066667c-3.413333-27.306667-27.306667-51.2-68.266666-51.2-44.373333 0-85.333333 23.893333-85.333334 51.2 0 37.546667 61.44 47.786667 81.92 51.2l10.24 3.413334c64.853333 13.653333 95.573333 40.96 95.573334 85.333333s-44.373333 81.92-102.4 81.92z"  /><path fill="#666" d="M529.066667 546.133333c-10.24 0-17.066667-6.826667-17.066667-17.066666v-341.333334c0-10.24 6.826667-17.066667 17.066667-17.066666s17.066667 6.826667 17.066666 17.066666v341.333334c0 10.24-6.826667 17.066667-17.066666 17.066666zM904.533333 170.666667h-68.266666c-10.24 0-17.066667-6.826667-17.066667-17.066667s6.826667-17.066667 17.066667-17.066667h68.266666c10.24 0 17.066667 6.826667 17.066667 17.066667s-6.826667 17.066667-17.066667 17.066667zM221.866667 853.333333c-47.786667 0-81.92-20.48-85.333334-47.786666 0-10.24 6.826667-20.48 13.653334-20.48 10.24 0 20.48 6.826667 20.48 13.653333 0 10.24 20.48 20.48 51.2 20.48 27.306667 0 51.2-13.653333 51.2-27.306667 0-6.826667-10.24-20.48-51.2-23.893333h-3.413334c-20.48-3.413333-81.92-13.653333-81.92-58.026667 0-34.133333 37.546667-61.44 85.333334-61.44s81.92 20.48 85.333333 47.786667c0 10.24-6.826667 20.48-13.653333 20.48-10.24 0-20.48-6.826667-20.48-17.066667 0-6.826667-20.48-17.066667-51.2-17.066666-27.306667 0-51.2 13.653333-51.2 27.306666 0 6.826667 10.24 20.48 51.2 23.893334h3.413333c23.893333 3.413333 81.92 13.653333 81.92 61.44 0 30.72-37.546667 58.026667-85.333333 58.026666z"  /><path fill="#666" d="M221.866667 887.466667c-10.24 0-17.066667-6.826667-17.066667-17.066667v-238.933333c0-10.24 6.826667-17.066667 17.066667-17.066667s17.066667 6.826667 17.066666 17.066667v238.933333c0 10.24-6.826667 17.066667-17.066666 17.066667z"  /><path fill="#666" d="M238.933333 989.866667c-133.12 0-238.933333-105.813333-238.933333-238.933334s105.813333-238.933333 238.933333-238.933333 238.933333 105.813333 238.933334 238.933333-105.813333 238.933333-238.933334 238.933334z m0-443.733334c-112.64 0-204.8 92.16-204.8 204.8s92.16 204.8 204.8 204.8 204.8-92.16 204.8-204.8-92.16-204.8-204.8-204.8z"  /></svg>