<?xml version="1.0" standalone="no"?><!DOCTYPE svg PUBLIC "-//W3C//DTD SVG 1.1//EN" "http://www.w3.org/Graphics/SVG/1.1/DTD/svg11.dtd"><svg t="1596901941893" class="icon" viewBox="0 0 1024 1024" version="1.1" xmlns="http://www.w3.org/2000/svg" p-id="6732" xmlns:xlink="http://www.w3.org/1999/xlink" width="200" height="200"><defs><style type="text/css"></style></defs><path d="M359.936 947.712c-2.56 0-5.12-0.512-7.168-1.536-3.072-1.536-329.728-133.12-228.864-406.016C147.456 476.672 179.2 435.712 202.24 406.016c26.112-33.28 37.376-49.152 30.208-70.656-3.072-8.192 0.512-17.92 8.192-23.04 7.68-4.608 17.92-3.584 24.576 3.072 1.536 1.536 25.088 25.6 43.52 56.32C363.008 291.328 453.632 138.752 435.712 76.8c-2.048-7.68 0.512-15.872 6.656-20.992 6.144-5.12 14.848-5.632 22.016-2.048 7.168 3.584 166.4 91.136 242.176 254.976 7.68-12.8 12.288-34.304 1.024-68.096-3.072-8.704 0.512-18.432 8.192-23.04 7.68-5.12 17.92-4.096 24.576 2.56 8.192 8.192 205.312 201.216 179.712 417.28-13.824 115.712-89.088 214.528-224.256 293.888-7.168 4.096-15.872 3.584-22.528-1.536-6.656-5.12-9.216-13.312-7.168-21.504 1.024-3.072 85.504-306.688-120.32-467.968-7.168 52.736-30.72 151.552-112.64 223.232-51.712 45.056-82.432 105.984-84.48 166.912-1.024 35.328 8.192 66.048 24.576 82.432 6.656 6.656 7.68 16.896 2.56 25.088-3.072 6.144-9.216 9.728-15.872 9.728zM267.264 380.416c-7.68 16.896-19.968 33.28-33.792 50.176-23.04 29.184-51.2 65.536-72.192 123.392-64.512 175.616 73.216 283.648 154.112 329.728-4.096-16.384-5.632-34.816-5.12-53.76 2.56-71.68 38.4-143.36 98.304-195.584C508.928 545.792 509.952 405.504 509.952 404.48c0-7.168 4.096-13.824 10.24-17.408 6.144-3.584 14.336-3.072 20.48 0.512 207.872 133.632 192 380.928 174.592 484.352 98.816-67.584 154.624-148.48 165.376-239.616 16.384-138.752-73.216-271.872-127.488-338.944-5.632 37.376-28.16 59.392-44.544 67.584-5.12 2.56-10.752 2.56-15.872 0.512s-9.216-6.144-11.264-11.264c-47.616-123.904-152.064-206.336-204.288-242.176C465.92 220.16 338.432 399.872 322.048 422.4c-4.608 6.144-11.776 9.216-18.944 8.192-7.168-1.024-13.312-6.144-15.872-13.312-4.608-12.288-12.288-25.088-19.968-36.864z" fill="#666666" p-id="6733"></path></svg>